<svg id="图层_1" data-name="图层 1" xmlns="http://www.w3.org/2000/svg" viewBox="0 0 668.58 92.3"><defs><style>.cls-1{fill:#00be70;}</style></defs><title>未标题-1</title><path class="cls-1" d="M543.6,428.38a9.59,9.59,0,0,1,7.06,2.88,9.27,9.27,0,0,1,2.88,6.77v49.53a33.88,33.88,0,0,1-2.66,12.75A32.62,32.62,0,0,1,544,510.53a33.13,33.13,0,0,1-10.37,7,33.66,33.66,0,0,1-12.88,2.73,9.46,9.46,0,0,1-9.51-9.65,9.57,9.57,0,0,1,2.81-6.91,9,9,0,0,1,6.7-2.88,13.85,13.85,0,0,0,5.25-1,12.65,12.65,0,0,0,4.32-2.8,13.88,13.88,0,0,0,2.88-4.25,12.7,12.7,0,0,0,1.08-5.19V438a9.49,9.49,0,0,1,2.74-6.77A8.79,8.79,0,0,1,543.6,428.38Z" transform="translate(-511.2 -427.95)"/><path class="cls-1" d="M632.59,462.94a34.36,34.36,0,0,1-2.73,13.61,34.81,34.81,0,0,1-18.65,18.65,34.36,34.36,0,0,1-13.61,2.73H582.05V510.6a9.65,9.65,0,1,1-19.3,0v-73A9.59,9.59,0,0,1,572.4,428h25.2a34.19,34.19,0,0,1,13.61,2.74,34.74,34.74,0,0,1,18.65,18.64A34.39,34.39,0,0,1,632.59,462.94Zm-19.29,0a15.26,15.26,0,0,0-1.23-6.05,15.67,15.67,0,0,0-3.38-5,15.84,15.84,0,0,0-5-3.38,15.25,15.25,0,0,0-6-1.22H582.05v31.39H597.6a15.26,15.26,0,0,0,6-1.23,15.67,15.67,0,0,0,5-3.38,15.93,15.93,0,0,0,3.38-5A15.07,15.07,0,0,0,613.3,462.94Z" transform="translate(-511.2 -427.95)"/><path class="cls-1" d="M673.63,428.24a35.51,35.51,0,0,1,13.25,2.52A34.29,34.29,0,0,1,698,437.81a35.2,35.2,0,0,1,7.63,10.73,31.36,31.36,0,0,1,2.88,13.39v48.53a9,9,0,0,1-2.66,6.48,9.26,9.26,0,0,1-6.56,2.88,9.67,9.67,0,0,1-6.69-2.52,8.25,8.25,0,0,1-2.81-6.41V494H657.65v16.42a8.86,8.86,0,0,1-2.88,6.55,9.23,9.23,0,0,1-6.63,2.81,9.6,9.6,0,0,1-6.62-2.59,8.21,8.21,0,0,1-2.88-6.34V463.08a36.47,36.47,0,0,1,2.81-13.53,34.89,34.89,0,0,1,7.34-11.09,34.33,34.33,0,0,1,24.84-10.22Zm16.13,34.84a16.32,16.32,0,0,0-1.22-6.26,15.06,15.06,0,0,0-3.46-5.11,17.73,17.73,0,0,0-5.18-3.46,15.86,15.86,0,0,0-6.41-1.29,15.42,15.42,0,0,0-6,1.22,17.3,17.3,0,0,0-5,3.24,15.24,15.24,0,0,0-3.46,4.9,14.6,14.6,0,0,0-1.29,6v13h32.11Z" transform="translate(-511.2 -427.95)"/><path class="cls-1" d="M748.8,497.93H737.14V510.6a9.65,9.65,0,1,1-19.3,0v-73a9.59,9.59,0,0,1,9.65-9.65h25.2a34.23,34.23,0,0,1,13.61,2.74,34.68,34.68,0,0,1,18.64,18.64,35.31,35.31,0,0,1-1.8,31,34.71,34.71,0,0,1-12,12.46l10.94,10.65a9.69,9.69,0,0,1,2.74,6.92,9.42,9.42,0,0,1-2.88,6.91,8.52,8.52,0,0,1-6.62,2.88,9.44,9.44,0,0,1-6.92-2.88Zm19.58-35a15.42,15.42,0,0,0-1.22-6.05,15.69,15.69,0,0,0-8.42-8.42,15.28,15.28,0,0,0-6-1.22H737.14v31.39h15.55a15.29,15.29,0,0,0,6-1.23,15.67,15.67,0,0,0,5-3.38,16.1,16.1,0,0,0,3.38-5A15.23,15.23,0,0,0,768.38,462.94Z" transform="translate(-511.2 -427.95)"/><path class="cls-1" d="M854.93,428.24a9.35,9.35,0,0,1,7,2.88,9.55,9.55,0,0,1,2.81,6.91,9.25,9.25,0,0,1-2.81,6.91,9.58,9.58,0,0,1-7,2.74H838.8v62.78a9.57,9.57,0,0,1-2.74,7,9.9,9.9,0,0,1-13.82,0,9.61,9.61,0,0,1-2.74-7V447.68H803.23a9.41,9.41,0,0,1-6.84-2.74,9.25,9.25,0,0,1-2.81-6.91,9.55,9.55,0,0,1,2.81-6.91,9.19,9.19,0,0,1,6.84-2.88Z" transform="translate(-511.2 -427.95)"/><path class="cls-1" d="M881.57,428.38a9,9,0,0,1,6.69,2.88,9.4,9.4,0,0,1,2.81,6.77V510.6a9.31,9.31,0,0,1-2.81,6.84,9.1,9.1,0,0,1-6.69,2.81,9.45,9.45,0,0,1-7-2.81,9.31,9.31,0,0,1-2.81-6.84V438a9.71,9.71,0,0,1,9.8-9.65Z" transform="translate(-511.2 -427.95)"/><path class="cls-1" d="M957.74,488.86a9.71,9.71,0,0,1,9.65,9.79,7.45,7.45,0,0,1-.51,2.74,29.72,29.72,0,0,1-1.22,2.73,31.11,31.11,0,0,1-11.81,11.74,34,34,0,0,1-17.28,4.39h-1.29a36.29,36.29,0,0,1-13.54-2.52,34.29,34.29,0,0,1-11.09-7.05A35.2,35.2,0,0,1,903,500a31.36,31.36,0,0,1-2.88-13.39V463.08a34.66,34.66,0,0,1,2.66-13.53,35.09,35.09,0,0,1,7.35-11.09,34.49,34.49,0,0,1,11-7.49,38.32,38.32,0,0,1,21.6-2,33.3,33.3,0,0,1,10.94,3.88,31.86,31.86,0,0,1,12.09,12.1,13.87,13.87,0,0,1,1.08,2.45,8.18,8.18,0,0,1,.51,2.73,9.83,9.83,0,0,1-9.79,9.8,7.88,7.88,0,0,1-5.19-1.66,17.81,17.81,0,0,1-3.6-4.1,12.82,12.82,0,0,0-4.75-4.61,24.82,24.82,0,0,0-6.33-2.45,22.53,22.53,0,0,0-2.6-.14,16.12,16.12,0,0,0-6.33,1.22,17.3,17.3,0,0,0-5,3.24,15.24,15.24,0,0,0-3.46,4.9,14.61,14.61,0,0,0-1.3,6v23a14.72,14.72,0,0,0,1.08,6.27,15.06,15.06,0,0,0,3.46,5.11,17.65,17.65,0,0,0,5.19,3.46,16.5,16.5,0,0,0,6.69,1.29h1.73a21.15,21.15,0,0,0,6.91-2.45,14.49,14.49,0,0,0,4.75-4.6,21.12,21.12,0,0,1,3.31-4Q953.86,488.87,957.74,488.86Z" transform="translate(-511.2 -427.95)"/><path class="cls-1" d="M1030.17,500.67a9.12,9.12,0,0,1,6.7,2.81,9.31,9.31,0,0,1,2.81,6.84,9.48,9.48,0,0,1-2.81,7,9.16,9.16,0,0,1-6.7,2.81H985.82a9.23,9.23,0,0,1-6.91-2.81,10.74,10.74,0,0,1-3-7V437.88a9.22,9.22,0,0,1,2.88-6.84,9.72,9.72,0,0,1,7.06-2.8,9.48,9.48,0,0,1,6.7,2.8,9.14,9.14,0,0,1,3,6.84v62.79Z" transform="translate(-511.2 -427.95)"/><path class="cls-1" d="M1096.27,500.81a9.22,9.22,0,0,1,6.84,2.88,9.69,9.69,0,0,1-6.84,16.56h-41.19a9.39,9.39,0,0,1-6.69-2.81,9.23,9.23,0,0,1-3-7V438a9.82,9.82,0,0,1,2.74-6.77,8.93,8.93,0,0,1,6.91-3h41.19a9.22,9.22,0,0,1,6.84,2.88,9.54,9.54,0,0,1,2.8,6.91,9.24,9.24,0,0,1-2.8,6.91,9.44,9.44,0,0,1-6.84,2.74h-31.68v16.41h22a9.29,9.29,0,0,1,6.77,2.88,9.47,9.47,0,0,1,2.88,6.91,9.26,9.26,0,0,1-2.88,6.85,9.4,9.4,0,0,1-6.77,2.8h-22v17.28Z" transform="translate(-511.2 -427.95)"/><path class="cls-1" d="M1142.34,447.68a7.71,7.71,0,0,0-5.83,2.52,9.37,9.37,0,0,0-2.52,6.26,8.35,8.35,0,0,0,2.52,5.69,8,8,0,0,0,5.83,2.37h9.8a25.55,25.55,0,0,1,10.29,2.17,29,29,0,0,1,8.86,6,29.34,29.34,0,0,1,6.19,8.93,26.09,26.09,0,0,1,2.31,10.87,26.77,26.77,0,0,1-2.17,10.66,27.58,27.58,0,0,1-5.9,8.78,28.77,28.77,0,0,1-8.78,6,28,28,0,0,1-10.8,2.37H1126.5a9.37,9.37,0,0,1-7-2.81,9.57,9.57,0,0,1-2.74-7,9.71,9.71,0,0,1,9.79-9.65h25.64a8.34,8.34,0,0,0,5.9-2.45,7.8,7.8,0,0,0,2.59-5.9,7.88,7.88,0,0,0-2.52-6,8.86,8.86,0,0,0-5.83-2.52h-9.94a28.24,28.24,0,0,1-10.51-2.3,29.16,29.16,0,0,1-8.85-5.83,28.07,28.07,0,0,1-6.12-8.71,26.54,26.54,0,0,1-.15-21.32,28.83,28.83,0,0,1,6-8.92,30.64,30.64,0,0,1,8.85-6.27,25.06,25.06,0,0,1,10.8-2.37H1168a8.9,8.9,0,0,1,6.62,2.8,10.77,10.77,0,0,1,3,7,9.35,9.35,0,0,1-9.64,9.65Z" transform="translate(-511.2 -427.95)"/></svg>