<svg xmlns="http://www.w3.org/2000/svg" xmlns:xlink="http://www.w3.org/1999/xlink" viewBox="0 0 160.33 37.71"><defs><style>.cls-1{fill:url(#未命名的渐变_39);}.cls-2{fill:url(#未命名的渐变_39-2);}.cls-3{fill:url(#未命名的渐变_39-3);}.cls-4{fill:url(#未命名的渐变_39-4);}.cls-5{fill:url(#未命名的渐变_39-5);}.cls-6{fill:url(#未命名的渐变_39-6);}.cls-7{fill:url(#未命名的渐变_39-7);}.cls-8{fill:url(#未命名的渐变_39-8);}.cls-9{fill:url(#未命名的渐变_39-9);}.cls-10{fill:url(#未命名的渐变_39-10);}.cls-11{fill:url(#未命名的渐变_39-11);}</style><linearGradient id="未命名的渐变_39" y1="18.85" x2="61.03" y2="18.85" gradientUnits="userSpaceOnUse"><stop offset="0" stop-color="#00be70"/><stop offset="1" stop-color="#00be70"/></linearGradient><linearGradient id="未命名的渐变_39-2" x1="70.86" y1="20.24" x2="75.27" y2="20.24" xlink:href="#未命名的渐变_39"/><linearGradient id="未命名的渐变_39-3" x1="76.33" y1="18.85" x2="84.14" y2="18.85" xlink:href="#未命名的渐变_39"/><linearGradient id="未命名的渐变_39-4" x1="85.17" y1="18.72" x2="96.24" y2="18.72" xlink:href="#未命名的渐变_39"/><linearGradient id="未命名的渐变_39-5" x1="97.11" y1="18.93" x2="107.01" y2="18.93" xlink:href="#未命名的渐变_39"/><linearGradient id="未命名的渐变_39-6" x1="107.6" y1="18.65" x2="117.04" y2="18.65" xlink:href="#未命名的渐变_39"/><linearGradient id="未命名的渐变_39-7" x1="118.1" y1="18.85" x2="122.2" y2="18.85" xlink:href="#未命名的渐变_39"/><linearGradient id="未命名的渐变_39-8" x1="123.65" y1="18.85" x2="134.26" y2="18.85" xlink:href="#未命名的渐变_39"/><linearGradient id="未命名的渐变_39-9" x1="135.27" y1="18.85" x2="143.33" y2="18.85" xlink:href="#未命名的渐变_39"/><linearGradient id="未命名的渐变_39-10" x1="144.11" y1="18.85" x2="152.66" y2="18.85" xlink:href="#未命名的渐变_39"/><linearGradient id="未命名的渐变_39-11" x1="153.98" y1="18.85" x2="160.33" y2="18.85" xlink:href="#未命名的渐变_39"/></defs><title>资源 7</title><g id="图层_2" data-name="图层 2"><g id="图层_1-2" data-name="图层 1"><path class="cls-1" d="M22.12,6.08,0,18.85,22.12,31.62l10.53,6.09V0ZM32,36.49l-9.83-5.68V6.9L32,1.22ZM21.42,7.3V30.41L1.4,18.85ZM60.33,18.45,41,7.3h0l-.7-.4V30.81l.7-.4L60.33,19.26h0l.7-.41Zm-7.25-3.38L41,22V8.11ZM41,29.6V22.84l12.76-7.36,5.85,3.37Z"/><path class="cls-2" d="M70.86,26.67c1.5-.58,2-1.53,2-5.29v-5.9c0-1.33-.1-1.62-1.66-1.7v-.24h4.07v.24c-1.39.08-1.52.37-1.52,1.7V22c0,3.39-1,4.12-2.8,4.9Z"/><path class="cls-3" d="M76.33,23.92c1.46-.07,1.59-.36,1.59-1.7V15.48c0-1.36,0-1.62-1.49-1.68v-.26h4c1.07,0,3.69.14,3.69,2.95a3.47,3.47,0,0,1-4,3.33l-1.35-.38v2.82c0,1.32.12,1.56,1.85,1.66v.24H76.33Zm2.51-4.85a3.36,3.36,0,0,0,1.44.25A2.5,2.5,0,0,0,83,16.58c0-1.85-1.07-2.7-3.16-2.7a4.23,4.23,0,0,0-.86,0c-.12,0-.17.06-.17.42Z"/><path class="cls-4" d="M92.36,23.92c1-.13,1.32-.24,1.32-.64A16.47,16.47,0,0,0,92.54,20H88.63a16.06,16.06,0,0,0-1,3.14c0,.58.46.68,1.41.83v.24H85.17v-.24c1.18-.24,1.4-.39,2-1.92l3.68-8.63.21-.08,1.13,3.14c.78,2.12,1.54,4.24,2.19,5.86.51,1.26.64,1.44,1.83,1.63v.24H92.36Zm-1.65-9.05c-.68,1.5-1.34,3.12-1.88,4.54h3.56l-1.64-4.54Z"/><path class="cls-5" d="M97.11,23.92c1.51-.07,1.65-.36,1.65-1.7V15.43c0-1.34-.14-1.53-1.56-1.63v-.26h4c1.68,0,3.51.51,3.51,2.68a3,3,0,0,1-2.07,2.88,21.25,21.25,0,0,0,1.51,2.33c.81,1,2,2.46,2.86,2.66l-.05.22c-1.54,0-2.35-.08-4.91-4.27-.43-.61-.94-.63-2.38-.63v2.81c0,1.34.14,1.63,1.6,1.7v.24H97.11Zm3.6-4.85a3.1,3.1,0,0,0,2.07-.51,2.49,2.49,0,0,0,.88-2.08c0-1.82-1.17-2.6-2.94-2.6a7.76,7.76,0,0,0-.9,0c-.08,0-.15.05-.15.37v4.78Z"/><path class="cls-6" d="M110.06,23.92c1.69-.08,1.81-.37,1.81-1.66V14h-1.05c-2.22,0-2.44.37-2.95,2.15h-.27c.1-1,.15-2,.18-3h.28a.68.68,0,0,0,.37.35,1.61,1.61,0,0,0,.54,0h6.83a.77.77,0,0,0,.8-.4h.29A28.28,28.28,0,0,0,117,16l-.29.06c-.4-1.91-1-2.15-2.49-2.15h-1.51v8.31c0,1.29.12,1.58,1.88,1.66v.24h-4.57Z"/><path class="cls-7" d="M118.1,23.92c1.48-.07,1.61-.36,1.61-1.7V15.48c0-1.33-.13-1.62-1.61-1.7v-.24h4.1v.24c-1.46.08-1.61.37-1.61,1.7v6.74c0,1.34.15,1.63,1.61,1.7v.24h-4.1Z"/><path class="cls-8" d="M134.26,21.07a24.41,24.41,0,0,1-.88,2.87,21.58,21.58,0,0,1-3.41.47c-4.44,0-6.34-2.85-6.32-5.41,0-3.39,2.85-5.71,6.68-5.71a12,12,0,0,1,3.2.47c.14.85.22,1.67.33,2.63l-.29.05c-.48-2-1.63-2.73-3.83-2.73a4.51,4.51,0,0,0-4.87,4.87c0,3.29,2,5.43,5,5.43,2.35,0,3.32-1.28,4.14-3Z"/><path class="cls-9" d="M143.33,21.51c-.12.56-.5,1.9-.62,2.65h-7.37v-.24c1.44-.07,1.56-.36,1.56-1.78V15.48c0-1.33-.12-1.62-1.63-1.7v-.24h4.21v.24c-1.55.08-1.7.37-1.7,1.7V21.9c0,1.8.41,1.85,2.14,1.85a3.19,3.19,0,0,0,2.22-.61,6.58,6.58,0,0,0,.88-1.63Z"/><path class="cls-10" d="M144.11,23.92c1.59-.08,1.71-.37,1.71-1.68V15.59c0-1.45-.13-1.74-1.54-1.81v-.24h7.38c0,.6.08,1.6.15,2.6l-.29.05c-.36-1.73-.68-2.24-2.73-2.24H147.2c-.46,0-.48,0-.48.47v4h2c1.34,0,1.66-.17,1.91-1.3h.29v3.15h-.29c-.27-1.3-.63-1.37-1.91-1.37h-2v3.3c0,1.6.7,1.6,2.1,1.6,1,0,2.06,0,2.6-.65a5.32,5.32,0,0,0,1-1.68h.29c-.16.63-.48,2.14-.61,2.72h-7.94Z"/><path class="cls-11" d="M159.53,16c-.29-1-.69-2.32-2.34-2.32a1.72,1.72,0,0,0-1.83,1.9c0,1.42,1,2,2.14,2.54.74.37,2.83,1.1,2.83,3.22,0,1.77-1.36,3-3.49,3.07a6.66,6.66,0,0,1-1.72-.27,2.81,2.81,0,0,1-.73-.32,22.25,22.25,0,0,1-.41-2.68h.28c.27.92,1,2.83,3,2.83a1.93,1.93,0,0,0,2.1-2.2c0-1.72-1.39-2.29-2.29-2.8-.15-.09-2.64-.88-2.64-2.95a2.86,2.86,0,0,1,3.15-2.73,5.82,5.82,0,0,1,2,.35c.06.58.15,1.21.27,2.36Z"/></g></g></svg>